<svg height="941" viewBox="0 0 1214 941" width="1214" xmlns="http://www.w3.org/2000/svg" xmlns:xlink="http://www.w3.org/1999/xlink"><defs><path id="a" d="m0 0h302v91h-302z"/><mask id="b" fill="#fff"><use fill="#fff" fill-rule="evenodd" xlink:href="#a"/></mask></defs><g fill="none" fill-rule="evenodd"><path d="m782.5 156.5h-351v629h351zm-1 1v627h-349v-627z" fill="#fff" fill-rule="nonzero"/><path d="m740 172.5h-266c-10.217268 0-18.5 8.282732-18.5 18.5s8.282732 18.5 18.5 18.5h266c10.217268 0 18.5-8.282732 18.5-18.5s-8.282732-18.5-18.5-18.5zm-266 1h266c9.664983 0 17.5 7.835017 17.5 17.5s-7.835017 17.5-17.5 17.5h-266c-9.664983 0-17.5-7.835017-17.5-17.5s7.835017-17.5 17.5-17.5z" fill="#fff" fill-rule="nonzero"/><path d="m502.354 196.112c.737333 0 1.381333-.114333 1.932-.343s.973-.553 1.267-.973.441-.91.441-1.47c0-.578667-.161-1.040667-.483-1.386s-.725667-.604333-1.211-.777-1.152667-.361667-2.002-.567c-.774667-.177333-1.353333-.392-1.736-.644s-.574-.625333-.574-1.12c0-.578667.217-1.029.651-1.351s1.033667-.483 1.799-.483c.56 0 1.080333.091 1.561.273s.954333.473667 1.421.875l.434-.882c-.410667-.401333-.912333-.709333-1.505-.924s-1.229667-.322-1.911-.322c-.718667 0-1.351.119-1.897.357s-.966.574-1.26 1.008-.441.931-.441 1.491c0 .588.151667 1.064.455 1.428s.7.644 1.19.84 1.117667.382667 1.883.56c.569333.130667 1.022.256667 1.358.378s.606667.284667.812.49.308.471333.308.798c0 .56-.214667.994-.644 1.302s-1.040667.462-1.834.462c-.672 0-1.262333-.088667-1.771-.266s-1.005667-.471333-1.491-.882l-.448.882c.924.830667 2.156 1.246 3.696 1.246zm8.358-.014c.485333 0 .961333-.081667 1.428-.245s.849333-.385 1.148-.665l-.378-.826c-.662667.541333-1.390667.812-2.184.812-.718667 0-1.274-.203-1.666-.609s-.606667-1.005667-.644-1.799h4.984v-.42c0-1.036-.256667-1.850333-.77-2.443s-1.222667-.889-2.128-.889c-.625333 0-1.183.149333-1.673.448s-.870333.716333-1.141 1.253-.406 1.155-.406 1.855c0 1.101333.305667 1.964667.917 2.59s1.449.938 2.513.938zm1.694-4.06h-3.962c.065333-.681333.277667-1.208667.637-1.582s.837667-.56 1.435-.56c.588 0 1.045333.184333 1.372.553s.499333.898333.518 1.589zm4.83 4.06c.476 0 .896-.109667 1.26-.329s.634667-.529667.812-.931v1.162h1.106v-4.298c0-.905333-.212333-1.579667-.637-2.023s-1.071-.665-1.939-.665c-.466667 0-.949667.077-1.449.231s-.926333.357-1.281.609l.378.826c.774667-.485333 1.554-.728 2.338-.728.522667 0 .900667.128333 1.134.385s.35.669667.35 1.239v.462h-.308c-1.064 0-1.894667.063-2.492.189s-1.026667.331333-1.288.616-.392.683667-.392 1.197c0 .382667.107333.732667.322 1.05s.506333.564667.875.742.772333.266 1.211.266zm.154-.896c-.401333 0-.735-.119-1.001-.357s-.399-.539-.399-.903c0-.317333.091-.557667.273-.721s.487667-.28.917-.35 1.054667-.105 1.876-.105h.252v.406c0 .597333-.179667 1.085-.539 1.463s-.819.567-1.379.567zm6.23.798v-3.892c0-.550667.156333-1.012667.469-1.386s.819-.592667 1.519-.658l.742-.07-.098-.98-.406.028c-1.12.093333-1.871333.536667-2.254 1.33v-1.19h-1.106v6.818zm6.692.098c.466667 0 .919333-.079333 1.358-.238s.802667-.373333 1.092-.644l-.378-.84c-.644.522667-1.297333.784-1.96.784-.7 0-1.246-.224-1.638-.672s-.588-1.082667-.588-1.904c0-.830667.196-1.474667.588-1.932s.938-.686 1.638-.686c.662667 0 1.316.261333 1.96.784l.378-.84c-.270667-.270667-.625333-.487667-1.064-.651s-.886667-.245-1.344-.245c-.672 0-1.257667.149333-1.757.448s-.886667.716333-1.162 1.253-.413 1.159667-.413 1.869.133 1.327667.399 1.855.646333.935667 1.141 1.225 1.078.434 1.75.434zm4.956-.098v-3.906c0-.653333.186667-1.171333.56-1.554s.872667-.574 1.498-.574c.541333 0 .935667.144667 1.183.434s.371.751333.371 1.386v4.214h1.134v-4.284c0-1.801333-.816667-2.702-2.45-2.702-.513333 0-.968333.107333-1.365.322s-.707.527333-.931.938v-4.144h-1.134v9.87z" fill="#fff" fill-rule="nonzero"/><path d="m484.864494 193.320755h-.813036l-.288165-.277873c1.008577-1.173242 1.615781-2.696398 1.615781-4.353345 0-3.694683-2.994854-6.689537-6.689537-6.689537s-6.689537 2.994854-6.689537 6.689537 2.994854 6.689537 6.689537 6.689537c1.656947 0 3.180103-.607204 4.353345-1.615781l.277873.288165v.813036l5.145797 5.135506 1.533448-1.533448zm-6.174957 0c-2.562607 0-4.631218-2.068611-4.631218-4.631218s2.068611-4.631218 4.631218-4.631218 4.631218 2.068611 4.631218 4.631218-2.068611 4.631218-4.631218 4.631218z" fill="#fff" fill-rule="nonzero"/><g fill="#fff" fill-rule="nonzero"><g transform="translate(483 225)"><path d="m57-.5h-44c-7.45584412 0-13.5 6.04415588-13.5 13.5 0 7.4558441 6.04415588 13.5 13.5 13.5h44c7.4558441 0 13.5-6.0441559 13.5-13.5 0-7.45584412-6.0441559-13.5-13.5-13.5zm-44 1h44c6.9035594 0 12.5 5.59644063 12.5 12.5 0 6.9035594-5.5964406 12.5-12.5 12.5h-44c-6.90355937 0-12.5-5.5964406-12.5-12.5 0-6.90355937 5.59644063-12.5 12.5-12.5z"/><path d="m18.65 17 .49-2.548h2.226l-.49 2.548h.882l.504-2.548h1.89v-.826h-1.736l.63-3.234h1.386v-.826h-1.218l.476-2.436h-.896l-.476 2.436h-2.226l.476-2.436h-.882l-.476 2.436h-1.918v.826h1.75l-.63 3.234h-1.4v.826h1.246l-.504 2.548zm2.884-3.374h-2.226l.63-3.234h2.226zm5.572 3.374v-3.906c0-.6533333.1866667-1.1713333.56-1.554s.8726667-.574 1.498-.574c.5413333 0 .9356667.1446667 1.183.434s.371.7513333.371 1.386v4.214h1.134v-4.284c0-1.8013333-.8166667-2.702-2.45-2.702-.5133333 0-.9683333.1073333-1.365.322s-.707.5273333-.931.938v-4.144h-1.134v9.87zm8.988.098c.476 0 .896-.1096667 1.26-.329s.6346667-.5296667.812-.931v1.162h1.106v-4.298c0-.9053333-.2123333-1.5796667-.637-2.023s-1.071-.665-1.939-.665c-.4666667 0-.9496667.077-1.449.231s-.9263333.357-1.281.609l.378.826c.7746667-.4853333 1.554-.728 2.338-.728.5226667 0 .9006667.1283333 1.134.385s.35.6696667.35 1.239v.462h-.308c-1.064 0-1.8946667.063-2.492.189s-1.0266667.3313333-1.288.616-.392.6836667-.392 1.197c0 .3826667.1073333.7326667.322 1.05s.5063333.5646667.875.742.7723333.266 1.211.266zm.154-.896c-.4013333 0-.735-.119-1.001-.357s-.399-.539-.399-.903c0-.3173333.091-.5576667.273-.721s.4876667-.28.917-.35 1.0546667-.105 1.876-.105h.252v.406c0 .5973333-.1796667 1.085-.539 1.463s-.819.567-1.379.567zm7.98.896c.4666667 0 .9193333-.0793333 1.358-.238s.8026667-.3733333 1.092-.644l-.378-.84c-.644.5226667-1.2973333.784-1.96.784-.7 0-1.246-.224-1.638-.672s-.588-1.0826667-.588-1.904c0-.8306667.196-1.4746667.588-1.932s.938-.686 1.638-.686c.6626667 0 1.316.2613333 1.96.784l.378-.84c-.2706667-.2706667-.6253333-.4876667-1.064-.651s-.8866667-.245-1.344-.245c-.672 0-1.2576667.1493333-1.757.448s-.8866667.7163333-1.162 1.253-.413 1.1596667-.413 1.869.133 1.3276667.399 1.855.6463333.9356667 1.141 1.225 1.078.434 1.75.434zm4.956-.098v-3.262l3.472 3.262h1.47l-3.71-3.542 3.388-3.262h-1.442l-3.178 3.08v-6.146h-1.134v9.87z"/></g><g transform="translate(565 225)"><path d="m59-.5h-46c-7.45584412 0-13.5 6.04415588-13.5 13.5 0 7.4558441 6.04415588 13.5 13.5 13.5h46c7.4558441 0 13.5-6.0441559 13.5-13.5 0-7.45584412-6.0441559-13.5-13.5-13.5zm-46 1h46c6.9035594 0 12.5 5.59644063 12.5 12.5 0 6.9035594-5.5964406 12.5-12.5 12.5h-46c-6.90355937 0-12.5-5.5964406-12.5-12.5 0-6.90355937 5.59644063-12.5 12.5-12.5z"/><path d="m18.522 17 .49-2.548h2.226l-.49 2.548h.882l.504-2.548h1.89v-.826h-1.736l.63-3.234h1.386v-.826h-1.218l.476-2.436h-.896l-.476 2.436h-2.226l.476-2.436h-.882l-.476 2.436h-1.918v.826h1.75l-.63 3.234h-1.4v.826h1.246l-.504 2.548zm2.884-3.374h-2.226l.63-3.234h2.226zm5.572 3.374v-3.892c0-.5506667.1563333-1.0126667.469-1.386s.819-.5926667 1.519-.658l.742-.07-.098-.98-.406.028c-1.12.0933333-1.8713333.5366667-2.254 1.33v-1.19h-1.106v6.818zm6.832.098c.4853333 0 .9613333-.0816667 1.428-.245s.8493333-.385 1.148-.665l-.378-.826c-.6626667.5413333-1.3906667.812-2.184.812-.7186667 0-1.274-.203-1.666-.609s-.6066667-1.0056667-.644-1.799h4.984v-.42c0-1.036-.2566667-1.8503333-.77-2.443s-1.2226667-.889-2.128-.889c-.6253333 0-1.183.1493333-1.673.448s-.8703333.7163333-1.141 1.253-.406 1.155-.406 1.855c0 1.1013333.3056667 1.9646667.917 2.59s1.449.938 2.513.938zm1.694-4.06h-3.962c.0653333-.6813333.2776667-1.2086667.637-1.582s.8376667-.56 1.435-.56c.588 0 1.0453333.1843333 1.372.553s.4993333.8983333.518 1.589zm4.83 4.06c.476 0 .896-.1096667 1.26-.329s.6346667-.5296667.812-.931v1.162h1.106v-4.298c0-.9053333-.2123333-1.5796667-.637-2.023s-1.071-.665-1.939-.665c-.4666667 0-.9496667.077-1.449.231s-.9263333.357-1.281.609l.378.826c.7746667-.4853333 1.554-.728 2.338-.728.5226667 0 .9006667.1283333 1.134.385s.35.6696667.35 1.239v.462h-.308c-1.064 0-1.8946667.063-2.492.189s-1.0266667.3313333-1.288.616-.392.6836667-.392 1.197c0 .3826667.1073333.7326667.322 1.05s.5063333.5646667.875.742.7723333.266 1.211.266zm.154-.896c-.4013333 0-.735-.119-1.001-.357s-.399-.539-.399-.903c0-.3173333.091-.5576667.273-.721s.4876667-.28.917-.35 1.0546667-.105 1.876-.105h.252v.406c0 .5973333-.1796667 1.085-.539 1.463s-.819.567-1.379.567zm7.98.896c.4666667 0 .9193333-.0793333 1.358-.238s.8026667-.3733333 1.092-.644l-.378-.84c-.644.5226667-1.2973333.784-1.96.784-.7 0-1.246-.224-1.638-.672s-.588-1.0826667-.588-1.904c0-.8306667.196-1.4746667.588-1.932s.938-.686 1.638-.686c.6626667 0 1.316.2613333 1.96.784l.378-.84c-.2706667-.2706667-.6253333-.4876667-1.064-.651s-.8866667-.245-1.344-.245c-.672 0-1.2576667.1493333-1.757.448s-.8866667.7163333-1.162 1.253-.413 1.1596667-.413 1.869.133 1.3276667.399 1.855.6463333.9356667 1.141 1.225 1.078.434 1.75.434zm6.678 0c.252 0 .4853333-.0186667.7-.056l.056-.896c-.2053333.028-.4106667.042-.616.042-.9893333 0-1.484-.5366667-1.484-1.61v-3.5h1.932v-.896h-1.932v-2.072h-1.134v2.072h-1.33v.896h1.33v3.584c0 .7653333.2076667 1.3626667.623 1.792s1.0336667.644 1.855.644z"/></g><g transform="translate(649 225)"><path d="m70-.5h-57c-7.45584412 0-13.5 6.04415588-13.5 13.5 0 7.4558441 6.04415588 13.5 13.5 13.5h57c7.4558441 0 13.5-6.0441559 13.5-13.5 0-7.45584412-6.0441559-13.5-13.5-13.5zm-57 1h57c6.9035594 0 12.5 5.59644063 12.5 12.5 0 6.9035594-5.5964406 12.5-12.5 12.5h-57c-6.90355937 0-12.5-5.5964406-12.5-12.5 0-6.90355937 5.59644063-12.5 12.5-12.5z"/><path d="m19.008 17 .49-2.548h2.226l-.49 2.548h.882l.504-2.548h1.89v-.826h-1.736l.63-3.234h1.386v-.826h-1.218l.476-2.436h-.896l-.476 2.436h-2.226l.476-2.436h-.882l-.476 2.436h-1.918v.826h1.75l-.63 3.234h-1.4v.826h1.246l-.504 2.548zm2.884-3.374h-2.226l.63-3.234h2.226zm5.572 3.374v-3.892c0-.6626667.1633333-1.1853333.49-1.568s.7746667-.574 1.344-.574c.4853333 0 .84.1423333 1.064.427s.336.7443333.336 1.379v4.228h1.134v-3.892c0-.6626667.1633333-1.1853333.49-1.568s.7746667-.574 1.344-.574c.4853333 0 .8376667.1446667 1.057.434s.329.7466667.329 1.372v4.228h1.134v-4.284c0-1.8013333-.756-2.702-2.268-2.702-.5133333 0-.9706667.119-1.372.357s-.7.567-.896.987c-.336-.896-1.0313333-1.344-2.086-1.344-.476 0-.896.1073333-1.26.322s-.6486667.5226667-.854.924v-1.078h-1.12v6.818zm13.622.098c.644 0 1.2133333-.1446667 1.708-.434s.875-.7023333 1.141-1.239.399-1.1596667.399-1.869-.133-1.3323333-.399-1.869-.6463333-.9496667-1.141-1.239-1.064-.434-1.708-.434-1.211.1446667-1.701.434-.868.7023333-1.134 1.239-.399 1.1596667-.399 1.869.133 1.3323333.399 1.869.644.9496667 1.134 1.239 1.057.434 1.701.434zm0-.938c-.672 0-1.1876667-.224-1.547-.672s-.539-1.092-.539-1.932c0-.8306667.182-1.4723333.546-1.925s.8773333-.679 1.54-.679 1.176.2263333 1.54.679.546 1.0943333.546 1.925c0 .8493333-.1796667 1.4956667-.539 1.939s-.875.665-1.547.665zm8.372.938c.5973333 0 1.1246667-.1493333 1.582-.448s.812-.7163333 1.064-1.253.378-1.1596667.378-1.869c0-.7-.126-1.316-.378-1.848s-.6066667-.9426667-1.064-1.232-.9846667-.434-1.582-.434c-.532 0-.9963333.1166667-1.393.35s-.6976667.5646667-.903.994v-4.228h-1.134v9.87h1.134v-1.246c.2053333.4293333.5063333.7606667.903.994s.861.35 1.393.35zm-.224-.938c-.6626667 0-1.1736667-.2263333-1.533-.679s-.539-1.0943333-.539-1.925.1796667-1.47.539-1.918.8703333-.672 1.533-.672 1.176.224 1.54.672.546 1.078.546 1.89c0 .8306667-.182 1.477-.546 1.939s-.8773333.693-1.54.693zm6.202-7.658v-1.274h-1.372v1.274zm-.126 8.498v-6.818h-1.134v6.818zm3.248 0v-9.87h-1.134v9.87zm5.138.098c.4853333 0 .9613333-.0816667 1.428-.245s.8493333-.385 1.148-.665l-.378-.826c-.6626667.5413333-1.3906667.812-2.184.812-.7186667 0-1.274-.203-1.666-.609s-.6066667-1.0056667-.644-1.799h4.984v-.42c0-1.036-.2566667-1.8503333-.77-2.443s-1.2226667-.889-2.128-.889c-.6253333 0-1.183.1493333-1.673.448s-.8703333.7163333-1.141 1.253-.406 1.155-.406 1.855c0 1.1013333.3056667 1.9646667.917 2.59s1.449.938 2.513.938zm1.694-4.06h-3.962c.0653333-.6813333.2776667-1.2086667.637-1.582s.8376667-.56 1.435-.56c.588 0 1.0453333.1843333 1.372.553s.4993333.8983333.518 1.589z"/></g></g><path d="m456 267h302v151h-302z" fill="#2a3859"/><g fill="#00d8ff" fill-rule="nonzero" transform="translate(550 292)"><circle cx="58.5" cy="51.5" r="10.5"/><g stroke="#00d8ff"><path d="m57.5017363 29c-14.1316722 0-27.7497779 2.0129709-37.9773805 5.5512464-11.9817971 4.1467082-19.5243558 10.5534104-19.5243558 16.8435798 0 6.5197954 8.12122006 13.425569 20.6178709 17.6665387 9.6003227 3.2578826 22.5305578 4.9386351 36.8838654 4.9386351 13.6707809 0 26.4619471-1.7153937 36.144141-4.9006503 12.9998517-4.274932 21.3541227-11.1048417 21.3541227-17.7045235 0-6.3047242-7.797691-12.7654716-20.0250731-16.9450033-10.2141173-3.4902311-23.5126426-5.4498229-37.4731906-5.4498229zm0 2.3684211c13.7133049 0 26.7559443 1.9218859 36.7085778 5.3227663 2.3871127.8159566 4.5841113 1.718389 6.5655719 2.6810368l.560245.2766581c7.113976 3.5708905 11.297614 7.9177193 11.297614 11.7459439 0 5.2548402-7.597147 11.4657746-19.7265843 15.4544754-9.4217859 3.0995873-21.969091 4.7822773-35.4054244 4.7822773-4.3286395 0-8.5226703-.1550528-12.5265078-.4613246l-1.0401284-.0833248c-8.6311741-.7229167-16.3406719-2.1589031-22.5574346-4.26857-.3492017-.118508-.6945616-.2391022-1.0359958-.3616911l-.6776096-.2478106c-10.6451582-3.9649228-17.29780496-9.869158-17.29780496-14.8140316 0-4.9758534 6.80195189-10.753479 17.93122596-14.6051427 9.9622963-3.4464918 23.3219705-5.4212624 37.2042552-5.4212624z"/><path d="m61.370018 9.97891193c-8.0972428 7.09314707-16.3974922 17.63030547-23.324718 29.72673287-7.0193464 12.2489419-12.0327638 25.0591518-14.0382037 35.7062698-2.3486135 12.4686275-.5394836 22.2226886 4.9052735 25.3850784 5.6461909 3.278479 15.6665542-.284259 25.5415837-8.9774333 7.5878789-6.6809704 15.4638975-17.0421034 22.5844039-29.4747879.2993816-.5226133.5950161-1.0454163.8868271-1.5682334l.5785015-1.045601c6.0202614-10.9779144 10.3319191-21.910402 12.2277802-31.1708034 2.7464214-13.4163774.9736912-24.0906572-4.7397177-27.40758538-5.4597382-3.16973699-14.9311312.33591115-24.6217305 8.82636331zm23.4386681-6.77303905c4.5585157 2.6464532 6.1711094 12.35649072 3.608119 24.87680042-1.9909358 9.7247967-6.7583004 21.438603-13.4270003 33.0797693-.2838341.4955854-.5688567.9877807-.8549961 1.4764785l-.5737464.9727005-.5765965.9631831-.5793187.9534747c-.67741 1.1066498-1.3601168 2.1930886-2.0472067 3.2579525l-.5899864.9074251c-.2955086.4510389-.5917743.8980434-.8887252 1.3409063l-.5947941.8801717c-.8934977 1.3118788-1.7927307 2.5858381-2.6957571 3.8189791l-.6025584.816015-.6035544.8037298c-3.8253962 5.0509825-7.7030341 9.3513202-11.4867524 12.6828058-9.1961069 8.095506-18.2873649 11.3279013-22.8001131 8.7075589-3.8849269-2.2564189-5.5954635-9.6099609-4.3080253-19.5030021l.0902797-.6632702c.0315797-.2223255.064649-.4458769.0992168-.6706263l.1082081-.6778139c.075148-.4542344.1563263-.9131483.2436073-1.3765171 1.9530205-10.3688174 6.8703551-22.933518 13.7648024-34.9645078 6.8033765-11.8801597 14.9421402-22.2123123 22.8300309-29.1220679 8.9173861-7.8129987 17.4028671-10.99885511 21.7542647-8.63352841z"/><path d="m28.7866043 1.19455115c-5.4383169 3.17817917-7.1458042 13.19258295-4.686479 25.89404475 2.0558348 10.611209 6.9637972 23.1200252 13.8937016 35.2163307 7.0149798 12.2428913 15.5128189 23.0233128 23.6452248 30.0958065 9.5332445 8.2862649 18.81129 11.5837309 24.2434814 8.4076989 5.6248126-3.287437 7.5573231-13.808101 5.0164971-26.7727359-1.8436178-9.4161322-6.3884875-20.7063695-12.9078104-32.4286555l-.5636175-1.0057918c-.189473-.3355942-.3805409-.6715074-.5731866-1.0077061-6.6900548-11.6775015-14.3882411-21.7639445-21.8440363-28.5424485l-.3287709-.2969c-10.1497428-9.10490298-20.1964808-12.89332013-25.8950042-9.55964305zm24.3204527 11.32834875c7.3522598 6.5946115 15.0279171 16.6089207 21.6989523 28.2532234.2841475.4958844.5647837.9910881.8418524 1.4854955l.5493642.9877189c6.2626035 11.3457686 10.6181937 22.229504 12.3831748 31.2440057 2.3674306 12.0798801.6121357 21.635775-3.8870284 24.2653237-4.2979473 2.5128749-12.6563689-.4577517-21.5072362-8.1508967-7.9189448-6.8868533-16.2538789-17.4606124-23.1438874-29.4853976-6.8064233-11.8807663-11.6194734-24.1476816-13.6225278-34.486464-2.2870613-11.8117857-.7408197-20.88048438 3.5562649-23.39172191 4.4923396-2.62805072 13.4829326.7188958 22.8471448 9.02543571z"/></g></g><path d="m456 480h302v151h-302z" fill="#2a3859"/><g fill="#00d8ff" transform="translate(550 519)"><path d="m25.8041543 38.8041543-2.8041543 6.1958457-2.8041543-6.1958457-6.1958457-2.8041543 6.1958457-2.8041543 2.8041543-6.1958457 2.8041543 6.1958457 6.1958457 2.8041543z"/><path d="m7.21364985 25.2136499-1.71364985 3.7863501-1.71364985-3.7863501-3.78635015-1.7136499 3.78635015-1.7136499 1.71364985-3.7863501 1.71364985 3.7863501 3.78635015 1.7136499z"/><path d="m111.21365 7.21364985-1.71365 3.78635015-1.71365-3.78635015-3.78635-1.71364985 3.78635-1.71364985 1.71365-3.78635015 1.71365 3.78635015 3.78635 1.71364985z"/><path d="m47 1.70200001c14.9907693 4.69900002 25.846154 18.72200009 25.846154 35.29799999 0 16.5760002-10.8553847 30.5990003-25.846154 35.2980003 3.5076923 1.11 7.2 1.7019997 11.0769231 1.7019997 20.3815386 0 36.9230769-16.5759998 36.9230769-37 0-20.4239999-16.5415383-37-36.9230769-37-3.8769231 0-7.5692308.592-11.0769231 1.70200001z"/></g><g fill-rule="nonzero" transform="translate(456 693)"><use fill="#2a3859" xlink:href="#a"/><path d="m150.5 21c6.360938 0 11.523438 5.12 11.523438 11.4285714l-.092188.8685715c1.889844-1.28 4.102344-2.0114286 6.545312-2.0114286 6.360938 0 11.523438 5.12 11.523438 11.4285714 0 4.5714286-2.719531 8.4571429-6.591406 10.2857143 3.871875 1.8285714 6.591406 5.7142857 6.591406 10.2857143 0 6.3085714-5.1625 11.4285714-11.523438 11.4285714-2.442968 0-4.701562-.7314286-6.545312-2.0114286l.092188.8685715c0 6.3085714-5.1625 11.4285714-11.523438 11.4285714s-11.523438-5.12-11.523438-11.4285714l.092188-.8685715c-1.889844 1.28-4.102344 2.0114286-6.545312 2.0114286-6.360938 0-11.523438-5.12-11.523438-11.4285714 0-4.5714286 2.719531-8.4571429 6.591406-10.2857143-3.871875-1.8285714-6.591406-5.7142857-6.591406-10.2857143 0-6.3085714 5.1625-11.4285714 11.523438-11.4285714 2.442968 0 4.701562.7314286 6.545312 2.0114286l-.092188-.8685715c0-6.3085714 5.1625-11.4285714 11.523438-11.4285714zm1 21c-6.348 0-11.5 5.152-11.5 11.5s5.152 11.5 11.5 11.5 11.5-5.152 11.5-11.5-5.152-11.5-11.5-11.5zm-41.5 35c22.641111 0 41 18.3588889 41 41-22.641111 0-41-18.3588889-41-41zm82 0c0 22.6411111-18.358889 41-41 41 0-22.6411111 18.358889-41 41-41z" fill="#00d8ff" mask="url(#b)"/></g><path d="m502.264 460v-.828h-1.86v-7.632h-.708l-2.22 1.404.456.756 1.488-.936v6.408h-1.86v.828zm5.904 0v-3.348c0-.56.16-1.004.48-1.332s.748-.492 1.284-.492c.464 0 .802.124 1.014.372s.318.644.318 1.188v3.612h.972v-3.672c0-1.544-.7-2.316-2.1-2.316-.44 0-.83.092-1.17.276s-.606.452-.798.804v-3.552h-.972v8.46zm6.816 0v-3.336c0-.472.134-.868.402-1.188s.702-.508 1.302-.564l.636-.06-.084-.84-.348.024c-.96.08-1.604.46-1.932 1.14v-1.02h-.948v5.844zm8.22.084c.408 0 .768-.094 1.08-.282s.544-.454.696-.798v.996h.948v-3.684c0-.776-.182-1.354-.546-1.734s-.918-.57-1.662-.57c-.4 0-.814.066-1.242.198s-.794.306-1.098.522l.324.708c.664-.416 1.332-.624 2.004-.624.448 0 .772.11.972.33s.3.574.3 1.062v.396h-.264c-.912 0-1.624.054-2.136.162s-.88.284-1.104.528-.336.586-.336 1.026c0 .328.092.628.276.9s.434.484.75.636.662.228 1.038.228zm.132-.768c-.344 0-.63-.102-.858-.306s-.342-.462-.342-.774c0-.272.078-.478.234-.618s.418-.24.786-.3.904-.09 1.608-.09h.216v.348c0 .512-.154.93-.462 1.254s-.702.486-1.182.486zm6.936 2.928c.88 0 1.544-.222 1.992-.666s.672-1.102.672-1.974v-5.448h-.972v1.008c-.176-.368-.436-.652-.78-.852s-.748-.3-1.212-.3c-.512 0-.966.12-1.362.36s-.704.58-.924 1.02-.33.948-.33 1.524.11 1.084.33 1.524.528.78.924 1.02.85.36 1.362.36c.472 0 .882-.1 1.23-.3s.606-.488.774-.864v1.032c0 .576-.144 1.014-.432 1.314s-.712.45-1.272.45c-.424 0-.808-.056-1.152-.168s-.712-.296-1.104-.552l-.324.72c.696.528 1.556.792 2.58.792zm-.108-3.228c-.568 0-1.014-.186-1.338-.558s-.486-.886-.486-1.542c0-.648.162-1.158.486-1.53s.77-.558 1.338-.558 1.01.186 1.326.558.474.882.474 1.53c0 .656-.16 1.17-.48 1.542s-.76.558-1.32.558zm6.996 1.068c.552 0 1.04-.124 1.464-.372s.75-.602.978-1.062.342-.994.342-1.602-.114-1.142-.342-1.602-.554-.814-.978-1.062-.912-.372-1.464-.372-1.038.124-1.458.372-.744.602-.972 1.062-.342.994-.342 1.602.114 1.142.342 1.602.552.814.972 1.062.906.372 1.458.372zm0-.804c-.576 0-1.018-.192-1.326-.576s-.462-.936-.462-1.656c0-.712.156-1.262.468-1.65s.752-.582 1.32-.582 1.008.194 1.32.582.468.938.468 1.65c0 .728-.154 1.282-.462 1.662s-.75.57-1.326.57z" fill="#fff" fill-rule="nonzero"/><path d="m499.516 673.084c.856 0 1.534-.212 2.034-.636s.75-1.004.75-1.74c0-.528-.132-.966-.396-1.314s-.644-.594-1.14-.738c.424-.16.754-.422.99-.786s.354-.79.354-1.278c0-.656-.226-1.178-.678-1.566s-1.062-.582-1.83-.582c-.536 0-1.052.092-1.548.276s-.916.44-1.26.768l.372.756c.784-.648 1.584-.972 2.4-.972.504 0 .892.122 1.164.366s.408.594.408 1.05c0 .52-.168.918-.504 1.194s-.816.414-1.44.414h-.78v.828h.972c1.296 0 1.944.516 1.944 1.548 0 .52-.156.914-.468 1.182s-.768.402-1.368.402c-.864 0-1.68-.324-2.448-.972l-.372.756c.344.328.768.584 1.272.768s1.028.276 1.572.276zm8.652-.084v-3.348c0-.56.16-1.004.48-1.332s.748-.492 1.284-.492c.464 0 .802.124 1.014.372s.318.644.318 1.188v3.612h.972v-3.672c0-1.544-.7-2.316-2.1-2.316-.44 0-.83.092-1.17.276s-.606.452-.798.804v-3.552h-.972v8.46zm6.816 0v-3.336c0-.472.134-.868.402-1.188s.702-.508 1.302-.564l.636-.06-.084-.84-.348.024c-.96.08-1.604.46-1.932 1.14v-1.02h-.948v5.844zm5.244.084c.712 0 1.274-.152 1.686-.456s.618-.712.618-1.224c0-.416-.132-.754-.396-1.014s-.668-.454-1.212-.582l-.996-.24c-.312-.072-.538-.178-.678-.318s-.21-.326-.21-.558c0-.28.114-.498.342-.654s.546-.234.954-.234c.64 0 1.228.228 1.764.684l.324-.708c-.248-.248-.556-.438-.924-.57s-.756-.198-1.164-.198c-.68 0-1.224.16-1.632.48s-.612.74-.612 1.26c0 .4.132.736.396 1.008s.644.464 1.14.576l.984.228c.352.08.604.188.756.324s.228.32.228.552c0 .28-.114.494-.342.642s-.558.222-.99.222c-.408 0-.774-.054-1.098-.162s-.642-.286-.954-.534l-.324.72c.576.504 1.356.756 2.34.756zm8.736 0c.408 0 .768-.094 1.08-.282s.544-.454.696-.798v.996h.948v-3.684c0-.776-.182-1.354-.546-1.734s-.918-.57-1.662-.57c-.4 0-.814.066-1.242.198s-.794.306-1.098.522l.324.708c.664-.416 1.332-.624 2.004-.624.448 0 .772.11.972.33s.3.574.3 1.062v.396h-.264c-.912 0-1.624.054-2.136.162s-.88.284-1.104.528-.336.586-.336 1.026c0 .328.092.628.276.9s.434.484.75.636.662.228 1.038.228zm.132-.768c-.344 0-.63-.102-.858-.306s-.342-.462-.342-.774c0-.272.078-.478.234-.618s.418-.24.786-.3.904-.09 1.608-.09h.216v.348c0 .512-.154.93-.462 1.254s-.702.486-1.182.486zm6.936 2.928c.88 0 1.544-.222 1.992-.666s.672-1.102.672-1.974v-5.448h-.972v1.008c-.176-.368-.436-.652-.78-.852s-.748-.3-1.212-.3c-.512 0-.966.12-1.362.36s-.704.58-.924 1.02-.33.948-.33 1.524.11 1.084.33 1.524.528.78.924 1.02.85.36 1.362.36c.472 0 .882-.1 1.23-.3s.606-.488.774-.864v1.032c0 .576-.144 1.014-.432 1.314s-.712.45-1.272.45c-.424 0-.808-.056-1.152-.168s-.712-.296-1.104-.552l-.324.72c.696.528 1.556.792 2.58.792zm-.108-3.228c-.568 0-1.014-.186-1.338-.558s-.486-.886-.486-1.542c0-.648.162-1.158.486-1.53s.77-.558 1.338-.558 1.01.186 1.326.558.474.882.474 1.53c0 .656-.16 1.17-.48 1.542s-.76.558-1.32.558zm6.996 1.068c.552 0 1.04-.124 1.464-.372s.75-.602.978-1.062.342-.994.342-1.602-.114-1.142-.342-1.602-.554-.814-.978-1.062-.912-.372-1.464-.372-1.038.124-1.458.372-.744.602-.972 1.062-.342.994-.342 1.602.114 1.142.342 1.602.552.814.972 1.062.906.372 1.458.372zm0-.804c-.576 0-1.018-.192-1.326-.576s-.462-.936-.462-1.656c0-.712.156-1.262.468-1.65s.752-.582 1.32-.582 1.008.194 1.32.582.468.938.468 1.65c0 .728-.154 1.282-.462 1.662s-.75.57-1.326.57z" fill="#fff" fill-rule="nonzero"/><path d="m498.366 444v-4.046h2.758c1.026667 0 1.829333-.256667 2.408-.77s.868-1.232.868-2.156-.287-1.638-.861-2.142-1.379-.756-2.415-.756h-3.906v9.87zm2.646-4.998h-2.646v-3.92h2.646c1.502667 0 2.254.648667 2.254 1.946 0 1.316-.751333 1.974-2.254 1.974zm7.896 5.096c.644 0 1.213333-.144667 1.708-.434s.875-.702333 1.141-1.239.399-1.159667.399-1.869-.133-1.332333-.399-1.869-.646333-.949667-1.141-1.239-1.064-.434-1.708-.434-1.211.144667-1.701.434-.868.702333-1.134 1.239-.399 1.159667-.399 1.869.133 1.332333.399 1.869.644.949667 1.134 1.239 1.057.434 1.701.434zm0-.938c-.672 0-1.187667-.224-1.547-.672s-.539-1.092-.539-1.932c0-.830667.182-1.472333.546-1.925s.877333-.679 1.54-.679 1.176.226333 1.54.679.546 1.094333.546 1.925c0 .849333-.179667 1.495667-.539 1.939s-.875.665-1.547.665zm7.252.938c.830667 0 1.486333-.177333 1.967-.532s.721-.830667.721-1.428c0-.485333-.154-.879667-.462-1.183s-.779333-.529667-1.414-.679l-1.162-.28c-.364-.084-.627667-.207667-.791-.371s-.245-.380333-.245-.651c0-.326667.133-.581.399-.763s.637-.273 1.113-.273c.746667 0 1.432667.266 2.058.798l.378-.826c-.289333-.289333-.648667-.511-1.078-.665s-.882-.231-1.358-.231c-.793333 0-1.428.186667-1.904.56s-.714.863333-.714 1.47c0 .466667.154.858667.462 1.176s.751333.541333 1.33.672l1.148.266c.410667.093333.704667.219333.882.378s.266.373333.266.644c0 .326667-.133.576333-.399.749s-.651.259-1.155.259c-.476 0-.903-.063-1.281-.189s-.749-.333667-1.113-.623l-.378.84c.672.588 1.582.882 2.73.882zm7.266 0c.252 0 .485333-.018667.7-.056l.056-.896c-.205333.028-.410667.042-.616.042-.989333 0-1.484-.536667-1.484-1.61v-3.5h1.932v-.896h-1.932v-2.072h-1.134v2.072h-1.33v.896h1.33v3.584c0 .765333.207667 1.362667.623 1.792s1.033667.644 1.855.644zm8.372 0c.252 0 .485333-.018667.7-.056l.056-.896c-.205333.028-.410667.042-.616.042-.989333 0-1.484-.536667-1.484-1.61v-3.5h1.932v-.896h-1.932v-2.072h-1.134v2.072h-1.33v.896h1.33v3.584c0 .765333.207667 1.362667.623 1.792s1.033667.644 1.855.644zm3.164-8.596v-1.274h-1.372v1.274zm-.126 8.498v-6.818h-1.134v6.818zm4.97.098c.252 0 .485333-.018667.7-.056l.056-.896c-.205333.028-.410667.042-.616.042-.989333 0-1.484-.536667-1.484-1.61v-3.5h1.932v-.896h-1.932v-2.072h-1.134v2.072h-1.33v.896h1.33v3.584c0 .765333.207667 1.362667.623 1.792s1.033667.644 1.855.644zm3.038-.098v-9.87h-1.134v9.87zm5.138.098c.485333 0 .961333-.081667 1.428-.245s.849333-.385 1.148-.665l-.378-.826c-.662667.541333-1.390667.812-2.184.812-.718667 0-1.274-.203-1.666-.609s-.606667-1.005667-.644-1.799h4.984v-.42c0-1.036-.256667-1.850333-.77-2.443s-1.222667-.889-2.128-.889c-.625333 0-1.183.149333-1.673.448s-.870333.716333-1.141 1.253-.406 1.155-.406 1.855c0 1.101333.305667 1.964667.917 2.59s1.449.938 2.513.938zm1.694-4.06h-3.962c.065333-.681333.277667-1.208667.637-1.582s.837667-.56 1.435-.56c.588 0 1.045333.184333 1.372.553s.499333.898333.518 1.589z" fill="#fff" fill-rule="nonzero"/><path d="m498.366 657v-4.046h2.758c1.026667 0 1.829333-.256667 2.408-.77s.868-1.232.868-2.156-.287-1.638-.861-2.142-1.379-.756-2.415-.756h-3.906v9.87zm2.646-4.998h-2.646v-3.92h2.646c1.502667 0 2.254.648667 2.254 1.946 0 1.316-.751333 1.974-2.254 1.974zm7.896 5.096c.644 0 1.213333-.144667 1.708-.434s.875-.702333 1.141-1.239.399-1.159667.399-1.869-.133-1.332333-.399-1.869-.646333-.949667-1.141-1.239-1.064-.434-1.708-.434-1.211.144667-1.701.434-.868.702333-1.134 1.239-.399 1.159667-.399 1.869.133 1.332333.399 1.869.644.949667 1.134 1.239 1.057.434 1.701.434zm0-.938c-.672 0-1.187667-.224-1.547-.672s-.539-1.092-.539-1.932c0-.830667.182-1.472333.546-1.925s.877333-.679 1.54-.679 1.176.226333 1.54.679.546 1.094333.546 1.925c0 .849333-.179667 1.495667-.539 1.939s-.875.665-1.547.665zm7.252.938c.830667 0 1.486333-.177333 1.967-.532s.721-.830667.721-1.428c0-.485333-.154-.879667-.462-1.183s-.779333-.529667-1.414-.679l-1.162-.28c-.364-.084-.627667-.207667-.791-.371s-.245-.380333-.245-.651c0-.326667.133-.581.399-.763s.637-.273 1.113-.273c.746667 0 1.432667.266 2.058.798l.378-.826c-.289333-.289333-.648667-.511-1.078-.665s-.882-.231-1.358-.231c-.793333 0-1.428.186667-1.904.56s-.714.863333-.714 1.47c0 .466667.154.858667.462 1.176s.751333.541333 1.33.672l1.148.266c.410667.093333.704667.219333.882.378s.266.373333.266.644c0 .326667-.133.576333-.399.749s-.651.259-1.155.259c-.476 0-.903-.063-1.281-.189s-.749-.333667-1.113-.623l-.378.84c.672.588 1.582.882 2.73.882zm7.266 0c.252 0 .485333-.018667.7-.056l.056-.896c-.205333.028-.410667.042-.616.042-.989333 0-1.484-.536667-1.484-1.61v-3.5h1.932v-.896h-1.932v-2.072h-1.134v2.072h-1.33v.896h1.33v3.584c0 .765333.207667 1.362667.623 1.792s1.033667.644 1.855.644zm8.372 0c.252 0 .485333-.018667.7-.056l.056-.896c-.205333.028-.410667.042-.616.042-.989333 0-1.484-.536667-1.484-1.61v-3.5h1.932v-.896h-1.932v-2.072h-1.134v2.072h-1.33v.896h1.33v3.584c0 .765333.207667 1.362667.623 1.792s1.033667.644 1.855.644zm3.164-8.596v-1.274h-1.372v1.274zm-.126 8.498v-6.818h-1.134v6.818zm4.97.098c.252 0 .485333-.018667.7-.056l.056-.896c-.205333.028-.410667.042-.616.042-.989333 0-1.484-.536667-1.484-1.61v-3.5h1.932v-.896h-1.932v-2.072h-1.134v2.072h-1.33v.896h1.33v3.584c0 .765333.207667 1.362667.623 1.792s1.033667.644 1.855.644zm3.038-.098v-9.87h-1.134v9.87zm5.138.098c.485333 0 .961333-.081667 1.428-.245s.849333-.385 1.148-.665l-.378-.826c-.662667.541333-1.390667.812-2.184.812-.718667 0-1.274-.203-1.666-.609s-.606667-1.005667-.644-1.799h4.984v-.42c0-1.036-.256667-1.850333-.77-2.443s-1.222667-.889-2.128-.889c-.625333 0-1.183.149333-1.673.448s-.870333.716333-1.141 1.253-.406 1.155-.406 1.855c0 1.101333.305667 1.964667.917 2.59s1.449.938 2.513.938zm1.694-4.06h-3.962c.065333-.681333.277667-1.208667.637-1.582s.837667-.56 1.435-.56c.588 0 1.045333.184333 1.372.553s.499333.898333.518 1.589z" fill="#fff" fill-rule="nonzero"/><circle cx="472" cy="446" fill="#2a3859" r="16"/><circle cx="472" cy="659" fill="#2a3859" r="16"/><g fill="#fff"><path d="m420.913574 156v2h-171.913574v626h95.913574v2h-97.913574v-630z" fill-rule="nonzero"/><path d="m204.858 477 5.544-12.69h-1.512l-4.662 10.836-4.644-10.836h-1.548l5.544 12.69zm8.55-10.926v-1.638h-1.764v1.638zm-.162 10.926v-8.766h-1.458v8.766zm6.606.126c.624 0 1.236-.105 1.836-.315s1.092-.495 1.476-.855l-.486-1.062c-.852.696-1.788 1.044-2.808 1.044-.924 0-1.638-.261-2.142-.783s-.78-1.293-.828-2.313h6.408v-.54c0-1.332-.33-2.379-.99-3.141s-1.572-1.143-2.736-1.143c-.804 0-1.521.192-2.151.576s-1.119.921-1.467 1.611-.522 1.485-.522 2.385c0 1.416.393 2.526 1.179 3.33s1.863 1.206 3.231 1.206zm2.178-5.22h-5.094c.084-.876.357-1.554.819-2.034s1.077-.72 1.845-.72c.756 0 1.344.237 1.764.711s.642 1.155.666 2.043zm7.164 5.094 2.484-6.786 2.466 6.786h1.404l3.258-8.766h-1.458l-2.502 7.038-2.502-7.038h-1.26l-2.538 7.038-2.484-7.038h-1.512l3.258 8.766z" fill-rule="nonzero"/><path d="m285.598 477.144c.948 0 1.776-.147 2.484-.441s1.251-.711 1.629-1.251.567-1.17.567-1.89c0-.744-.207-1.338-.621-1.782s-.933-.777-1.557-.999-1.482-.465-2.574-.729c-.996-.228-1.74-.504-2.232-.828s-.738-.804-.738-1.44c0-.744.279-1.323.837-1.737s1.329-.621 2.313-.621c.72 0 1.389.117 2.007.351s1.227.609 1.827 1.125l.558-1.134c-.528-.516-1.173-.912-1.935-1.188s-1.581-.414-2.457-.414c-.924 0-1.737.153-2.439.459s-1.242.738-1.62 1.296-.567 1.197-.567 1.917c0 .756.195 1.368.585 1.836s.9.828 1.53 1.08 1.437.492 2.421.72c.732.168 1.314.33 1.746.486s.78.366 1.044.63.396.606.396 1.026c0 .72-.276 1.278-.828 1.674s-1.338.594-2.358.594c-.864 0-1.623-.114-2.277-.342s-1.293-.606-1.917-1.134l-.576 1.134c1.188 1.068 2.772 1.602 4.752 1.602zm10.566-.018c.6 0 1.182-.102 1.746-.306s1.032-.48 1.404-.828l-.486-1.08c-.828.672-1.668 1.008-2.52 1.008-.9 0-1.602-.288-2.106-.864s-.756-1.392-.756-2.448c0-1.068.252-1.896.756-2.484s1.206-.882 2.106-.882c.852 0 1.692.336 2.52 1.008l.486-1.08c-.348-.348-.804-.627-1.368-.837s-1.14-.315-1.728-.315c-.864 0-1.617.192-2.259.576s-1.14.921-1.494 1.611-.531 1.491-.531 2.403.171 1.707.513 2.385.831 1.203 1.467 1.575 1.386.558 2.25.558zm6.372-.126v-5.004c0-.708.201-1.302.603-1.782s1.053-.762 1.953-.846l.954-.09-.126-1.26-.522.036c-1.44.12-2.406.69-2.898 1.71v-1.53h-1.422v8.766zm8.532.126c.828 0 1.56-.186 2.196-.558s1.125-.903 1.467-1.593.513-1.491.513-2.403-.171-1.713-.513-2.403-.831-1.221-1.467-1.593-1.368-.558-2.196-.558-1.557.186-2.187.558-1.116.903-1.458 1.593-.513 1.491-.513 2.403.171 1.713.513 2.403.828 1.221 1.458 1.593 1.359.558 2.187.558zm0-1.206c-.864 0-1.527-.288-1.989-.864s-.693-1.404-.693-2.484c0-1.068.234-1.893.702-2.475s1.128-.873 1.98-.873 1.512.291 1.98.873.702 1.407.702 2.475c0 1.092-.231 1.923-.693 2.493s-1.125.855-1.989.855zm7.812 1.08v-12.69h-1.458v12.69zm4.176 0v-12.69h-1.458v12.69zm8.226 0 5.544-12.69h-1.512l-4.662 10.836-4.644-10.836h-1.548l5.544 12.69zm8.55-10.926v-1.638h-1.764v1.638zm-.162 10.926v-8.766h-1.458v8.766zm6.606.126c.624 0 1.236-.105 1.836-.315s1.092-.495 1.476-.855l-.486-1.062c-.852.696-1.788 1.044-2.808 1.044-.924 0-1.638-.261-2.142-.783s-.78-1.293-.828-2.313h6.408v-.54c0-1.332-.33-2.379-.99-3.141s-1.572-1.143-2.736-1.143c-.804 0-1.521.192-2.151.576s-1.119.921-1.467 1.611-.522 1.485-.522 2.385c0 1.416.393 2.526 1.179 3.33s1.863 1.206 3.231 1.206zm2.178-5.22h-5.094c.084-.876.357-1.554.819-2.034s1.077-.72 1.845-.72c.756 0 1.344.237 1.764.711s.642 1.155.666 2.043zm7.164 5.094 2.484-6.786 2.466 6.786h1.404l3.258-8.766h-1.458l-2.502 7.038-2.502-7.038h-1.26l-2.538 7.038-2.484-7.038h-1.512l3.258 8.766z" fill-rule="nonzero"/><path d="m834.12 197v-11.43h4.428v-1.26h-10.332v1.26h4.41v11.43zm9.882.126c.624 0 1.236-.105 1.836-.315s1.092-.495 1.476-.855l-.486-1.062c-.852.696-1.788 1.044-2.808 1.044-.924 0-1.638-.261-2.142-.783s-.78-1.293-.828-2.313h6.408v-.54c0-1.332-.33-2.379-.99-3.141s-1.572-1.143-2.736-1.143c-.804 0-1.521.192-2.151.576s-1.119.921-1.467 1.611-.522 1.485-.522 2.385c0 1.416.393 2.526 1.179 3.33s1.863 1.206 3.231 1.206zm2.178-5.22h-5.094c.084-.876.357-1.554.819-2.034s1.077-.72 1.845-.72c.756 0 1.344.237 1.764.711s.642 1.155.666 2.043zm4.014 5.094 2.718-3.42 2.736 3.42h1.764l-3.636-4.518 3.438-4.248h-1.782l-2.52 3.186-2.52-3.186h-1.764l3.42 4.248-3.636 4.518zm12.402.126c.324 0 .624-.024.9-.072l.072-1.152c-.264.036-.528.054-.792.054-1.272 0-1.908-.69-1.908-2.07v-4.5h2.484v-1.152h-2.484v-2.664h-1.458v2.664h-1.71v1.152h1.71v4.608c0 .984.267 1.752.801 2.304s1.329.828 2.385.828zm4.14-.126v-12.69h-1.476v12.69zm4.374 0v-5.022c0-.84.24-1.506.72-1.998s1.122-.738 1.926-.738c.696 0 1.203.186 1.521.558s.477.966.477 1.782v5.418h1.458v-5.508c0-2.316-1.05-3.474-3.15-3.474-.66 0-1.248.141-1.764.423s-.918.693-1.206 1.233v-1.44h-1.44v8.766zm10.224 3.24v-4.842c.264.552.651.978 1.161 1.278s1.107.45 1.791.45c.78 0 1.461-.186 2.043-.558s1.035-.897 1.359-1.575.486-1.473.486-2.385-.162-1.713-.486-2.403-.78-1.227-1.368-1.611-1.266-.576-2.034-.576c-.684 0-1.281.15-1.791.45s-.897.726-1.161 1.278v-1.512h-1.458v12.006zm2.664-4.32c-.852 0-1.509-.291-1.971-.873s-.693-1.407-.693-2.475.231-1.89.693-2.466 1.119-.864 1.971-.864 1.512.297 1.98.891.702 1.419.702 2.475-.234 1.872-.702 2.448-1.128.864-1.98.864zm9.468 1.206c.624 0 1.185-.138 1.683-.414s.885-.678 1.161-1.206v1.494h1.422v-8.766h-1.458v4.95c0 .816-.234 1.473-.702 1.971s-1.086.747-1.854.747c-.672 0-1.164-.183-1.476-.549s-.468-.939-.468-1.719v-5.4h-1.458v5.436c0 1.14.264 2.001.792 2.583s1.314.873 2.358.873zm10.656 0c.324 0 .624-.024.9-.072l.072-1.152c-.264.036-.528.054-.792.054-1.272 0-1.908-.69-1.908-2.07v-4.5h2.484v-1.152h-2.484v-2.664h-1.458v2.664h-1.71v1.152h1.71v4.608c0 .984.267 1.752.801 2.304s1.329.828 2.385.828z" fill-rule="nonzero"/><path d="m834.858 244c1.344 0 2.382-.297 3.114-.891s1.098-1.449 1.098-2.565c0-.792-.201-1.452-.603-1.98s-.969-.888-1.701-1.08c.636-.24 1.131-.606 1.485-1.098s.531-1.08.531-1.764c0-1.056-.36-1.872-1.08-2.448s-1.734-.864-3.042-.864h-5.094v12.69zm-.414-7.056h-3.42v-4.41h3.42c1.92 0 2.88.72 2.88 2.16 0 .732-.243 1.29-.729 1.674s-1.203.576-2.151.576zm.27 5.832h-3.69v-4.608h3.69c1.944 0 2.916.78 2.916 2.34 0 .78-.237 1.353-.711 1.719s-1.209.549-2.205.549zm9.882 1.35c.624 0 1.185-.138 1.683-.414s.885-.678 1.161-1.206v1.494h1.422v-8.766h-1.458v4.95c0 .816-.234 1.473-.702 1.971s-1.086.747-1.854.747c-.672 0-1.164-.183-1.476-.549s-.468-.939-.468-1.719v-5.4h-1.458v5.436c0 1.14.264 2.001.792 2.583s1.314.873 2.358.873zm10.656 0c.324 0 .624-.024.9-.072l.072-1.152c-.264.036-.528.054-.792.054-1.272 0-1.908-.69-1.908-2.07v-4.5h2.484v-1.152h-2.484v-2.664h-1.458v2.664h-1.71v1.152h1.71v4.608c0 .984.267 1.752.801 2.304s1.329.828 2.385.828zm6.12 0c.324 0 .624-.024.9-.072l.072-1.152c-.264.036-.528.054-.792.054-1.272 0-1.908-.69-1.908-2.07v-4.5h2.484v-1.152h-2.484v-2.664h-1.458v2.664h-1.71v1.152h1.71v4.608c0 .984.267 1.752.801 2.304s1.329.828 2.385.828zm6.084 0c.828 0 1.56-.186 2.196-.558s1.125-.903 1.467-1.593.513-1.491.513-2.403-.171-1.713-.513-2.403-.831-1.221-1.467-1.593-1.368-.558-2.196-.558-1.557.186-2.187.558-1.116.903-1.458 1.593-.513 1.491-.513 2.403.171 1.713.513 2.403.828 1.221 1.458 1.593 1.359.558 2.187.558zm0-1.206c-.864 0-1.527-.288-1.989-.864s-.693-1.404-.693-2.484c0-1.068.234-1.893.702-2.475s1.128-.873 1.98-.873 1.512.291 1.98.873.702 1.407.702 2.475c0 1.092-.231 1.923-.693 2.493s-1.125.855-1.989.855zm7.812 1.08v-5.022c0-.84.24-1.506.72-1.998s1.122-.738 1.926-.738c.696 0 1.203.186 1.521.558s.477.966.477 1.782v5.418h1.458v-5.508c0-2.316-1.05-3.474-3.15-3.474-.66 0-1.248.141-1.764.423s-.918.693-1.206 1.233v-1.44h-1.44v8.766z" fill-rule="nonzero"/><path d="m831.042 349v-12.69h-1.476v12.69zm4.374 0v-5.004c0-.852.21-1.524.63-2.016s.996-.738 1.728-.738c.624 0 1.08.183 1.368.549s.432.957.432 1.773v5.436h1.458v-5.004c0-.852.21-1.524.63-2.016s.996-.738 1.728-.738c.624 0 1.077.186 1.359.558s.423.96.423 1.764v5.436h1.458v-5.508c0-2.316-.972-3.474-2.916-3.474-.66 0-1.248.153-1.764.459s-.9.729-1.152 1.269c-.432-1.152-1.326-1.728-2.682-1.728-.612 0-1.152.138-1.62.414s-.834.672-1.098 1.188v-1.386h-1.44v8.766zm16.668.126c.612 0 1.152-.141 1.62-.423s.816-.681 1.044-1.197v1.494h1.422v-5.526c0-1.164-.273-2.031-.819-2.601s-1.377-.855-2.493-.855c-.6 0-1.221.099-1.863.297s-1.191.459-1.647.783l.486 1.062c.996-.624 1.998-.936 3.006-.936.672 0 1.158.165 1.458.495s.45.861.45 1.593v.594h-.396c-1.368 0-2.436.081-3.204.243s-1.32.426-1.656.792-.504.879-.504 1.539c0 .492.138.942.414 1.35s.651.726 1.125.954.993.342 1.557.342zm.198-1.152c-.516 0-.945-.153-1.287-.459s-.513-.693-.513-1.161c0-.408.117-.717.351-.927s.627-.36 1.179-.45 1.356-.135 2.412-.135h.324v.522c0 .768-.231 1.395-.693 1.881s-1.053.729-1.773.729zm10.404 4.392c1.32 0 2.316-.333 2.988-.999s1.008-1.653 1.008-2.961v-8.172h-1.458v1.512c-.264-.552-.654-.978-1.17-1.278s-1.122-.45-1.818-.45c-.768 0-1.449.18-2.043.54s-1.056.87-1.386 1.53-.495 1.422-.495 2.286.165 1.626.495 2.286.792 1.17 1.386 1.53 1.275.54 2.043.54c.708 0 1.323-.15 1.845-.45s.909-.732 1.161-1.296v1.548c0 .864-.216 1.521-.648 1.971s-1.068.675-1.908.675c-.636 0-1.212-.084-1.728-.252s-1.068-.444-1.656-.828l-.486 1.08c1.044.792 2.334 1.188 3.87 1.188zm-.162-4.842c-.852 0-1.521-.279-2.007-.837s-.729-1.329-.729-2.313c0-.972.243-1.737.729-2.295s1.155-.837 2.007-.837 1.515.279 1.989.837.711 1.323.711 2.295c0 .984-.24 1.755-.72 2.313s-1.14.837-1.98.837zm10.746 1.602c.624 0 1.236-.105 1.836-.315s1.092-.495 1.476-.855l-.486-1.062c-.852.696-1.788 1.044-2.808 1.044-.924 0-1.638-.261-2.142-.783s-.78-1.293-.828-2.313h6.408v-.54c0-1.332-.33-2.379-.99-3.141s-1.572-1.143-2.736-1.143c-.804 0-1.521.192-2.151.576s-1.119.921-1.467 1.611-.522 1.485-.522 2.385c0 1.416.393 2.526 1.179 3.33s1.863 1.206 3.231 1.206zm2.178-5.22h-5.094c.084-.876.357-1.554.819-2.034s1.077-.72 1.845-.72c.756 0 1.344.237 1.764.711s.642 1.155.666 2.043z" fill-rule="nonzero"/><path d="m831.042 563v-12.69h-1.476v12.69zm4.374 0v-5.004c0-.852.21-1.524.63-2.016s.996-.738 1.728-.738c.624 0 1.08.183 1.368.549s.432.957.432 1.773v5.436h1.458v-5.004c0-.852.21-1.524.63-2.016s.996-.738 1.728-.738c.624 0 1.077.186 1.359.558s.423.96.423 1.764v5.436h1.458v-5.508c0-2.316-.972-3.474-2.916-3.474-.66 0-1.248.153-1.764.459s-.9.729-1.152 1.269c-.432-1.152-1.326-1.728-2.682-1.728-.612 0-1.152.138-1.62.414s-.834.672-1.098 1.188v-1.386h-1.44v8.766zm16.668.126c.612 0 1.152-.141 1.62-.423s.816-.681 1.044-1.197v1.494h1.422v-5.526c0-1.164-.273-2.031-.819-2.601s-1.377-.855-2.493-.855c-.6 0-1.221.099-1.863.297s-1.191.459-1.647.783l.486 1.062c.996-.624 1.998-.936 3.006-.936.672 0 1.158.165 1.458.495s.45.861.45 1.593v.594h-.396c-1.368 0-2.436.081-3.204.243s-1.32.426-1.656.792-.504.879-.504 1.539c0 .492.138.942.414 1.35s.651.726 1.125.954.993.342 1.557.342zm.198-1.152c-.516 0-.945-.153-1.287-.459s-.513-.693-.513-1.161c0-.408.117-.717.351-.927s.627-.36 1.179-.45 1.356-.135 2.412-.135h.324v.522c0 .768-.231 1.395-.693 1.881s-1.053.729-1.773.729zm10.404 4.392c1.32 0 2.316-.333 2.988-.999s1.008-1.653 1.008-2.961v-8.172h-1.458v1.512c-.264-.552-.654-.978-1.17-1.278s-1.122-.45-1.818-.45c-.768 0-1.449.18-2.043.54s-1.056.87-1.386 1.53-.495 1.422-.495 2.286.165 1.626.495 2.286.792 1.17 1.386 1.53 1.275.54 2.043.54c.708 0 1.323-.15 1.845-.45s.909-.732 1.161-1.296v1.548c0 .864-.216 1.521-.648 1.971s-1.068.675-1.908.675c-.636 0-1.212-.084-1.728-.252s-1.068-.444-1.656-.828l-.486 1.08c1.044.792 2.334 1.188 3.87 1.188zm-.162-4.842c-.852 0-1.521-.279-2.007-.837s-.729-1.329-.729-2.313c0-.972.243-1.737.729-2.295s1.155-.837 2.007-.837 1.515.279 1.989.837.711 1.323.711 2.295c0 .984-.24 1.755-.72 2.313s-1.14.837-1.98.837zm10.746 1.602c.624 0 1.236-.105 1.836-.315s1.092-.495 1.476-.855l-.486-1.062c-.852.696-1.788 1.044-2.808 1.044-.924 0-1.638-.261-2.142-.783s-.78-1.293-.828-2.313h6.408v-.54c0-1.332-.33-2.379-.99-3.141s-1.572-1.143-2.736-1.143c-.804 0-1.521.192-2.151.576s-1.119.921-1.467 1.611-.522 1.485-.522 2.385c0 1.416.393 2.526 1.179 3.33s1.863 1.206 3.231 1.206zm2.178-5.22h-5.094c.084-.876.357-1.554.819-2.034s1.077-.72 1.845-.72c.756 0 1.344.237 1.764.711s.642 1.155.666 2.043z" fill-rule="nonzero"/><path d="m834.12 446v-11.43h4.428v-1.26h-10.332v1.26h4.41v11.43zm9.882.126c.624 0 1.236-.105 1.836-.315s1.092-.495 1.476-.855l-.486-1.062c-.852.696-1.788 1.044-2.808 1.044-.924 0-1.638-.261-2.142-.783s-.78-1.293-.828-2.313h6.408v-.54c0-1.332-.33-2.379-.99-3.141s-1.572-1.143-2.736-1.143c-.804 0-1.521.192-2.151.576s-1.119.921-1.467 1.611-.522 1.485-.522 2.385c0 1.416.393 2.526 1.179 3.33s1.863 1.206 3.231 1.206zm2.178-5.22h-5.094c.084-.876.357-1.554.819-2.034s1.077-.72 1.845-.72c.756 0 1.344.237 1.764.711s.642 1.155.666 2.043zm4.014 5.094 2.718-3.42 2.736 3.42h1.764l-3.636-4.518 3.438-4.248h-1.782l-2.52 3.186-2.52-3.186h-1.764l3.42 4.248-3.636 4.518zm12.402.126c.324 0 .624-.024.9-.072l.072-1.152c-.264.036-.528.054-.792.054-1.272 0-1.908-.69-1.908-2.07v-4.5h2.484v-1.152h-2.484v-2.664h-1.458v2.664h-1.71v1.152h1.71v4.608c0 .984.267 1.752.801 2.304s1.329.828 2.385.828z" fill-rule="nonzero"/><path d="m834.12 660v-11.43h4.428v-1.26h-10.332v1.26h4.41v11.43zm9.882.126c.624 0 1.236-.105 1.836-.315s1.092-.495 1.476-.855l-.486-1.062c-.852.696-1.788 1.044-2.808 1.044-.924 0-1.638-.261-2.142-.783s-.78-1.293-.828-2.313h6.408v-.54c0-1.332-.33-2.379-.99-3.141s-1.572-1.143-2.736-1.143c-.804 0-1.521.192-2.151.576s-1.119.921-1.467 1.611-.522 1.485-.522 2.385c0 1.416.393 2.526 1.179 3.33s1.863 1.206 3.231 1.206zm2.178-5.22h-5.094c.084-.876.357-1.554.819-2.034s1.077-.72 1.845-.72c.756 0 1.344.237 1.764.711s.642 1.155.666 2.043zm4.014 5.094 2.718-3.42 2.736 3.42h1.764l-3.636-4.518 3.438-4.248h-1.782l-2.52 3.186-2.52-3.186h-1.764l3.42 4.248-3.636 4.518zm12.402.126c.324 0 .624-.024.9-.072l.072-1.152c-.264.036-.528.054-.792.054-1.272 0-1.908-.69-1.908-2.07v-4.5h2.484v-1.152h-2.484v-2.664h-1.458v2.664h-1.71v1.152h1.71v4.608c0 .984.267 1.752.801 2.304s1.329.828 2.385.828z" fill-rule="nonzero"/><path d="m421.650635 266v2h-45.913635v516h45.913635v2h-47.913574v-520z" fill-rule="nonzero"/><path d="m770 184c3.526469 0 6.443877 2.607702 6.92911 6h43.609586v2l-43.609729.00101c-.485665 3.391802-3.402845 5.99899-6.928967 5.99899-3.865993 0-7-3.134007-7-7s3.134007-7 7-7z" fill-rule="nonzero"/><path d="m746 231c3.526469 0 6.443877 2.607702 6.92911 6h67.609586v2l-67.609729.00101c-.485665 3.391802-3.402845 5.99899-6.928967 5.99899-3.865993 0-7-3.134007-7-7s3.134007-7 7-7z" fill-rule="nonzero"/><path d="m769.930843 336.000342c3.526222-.03484 6.4692 2.543801 6.988016 5.931025l43.678073-.431318.019759 1.999902-43.67804.431552c-.451695 3.396918-3.343197 6.033315-6.869494 6.068155-3.865804.038195-7.030621-3.064696-7.069164-6.930501-.037846-3.865804 3.065045-7.030621 6.93085-7.068815z" fill-rule="nonzero"/><path d="m769.930843 550.000342c3.526222-.03484 6.4692 2.543801 6.988016 5.931025l43.678073-.431318.019759 1.999902-43.67804.431552c-.451695 3.396918-3.343197 6.033315-6.869494 6.068155-3.865804.038195-7.030621-3.064696-7.069164-6.930501-.037846-3.865804 3.065045-7.030621 6.93085-7.068815z" fill-rule="nonzero"/><path d="m564.986307 433c3.526462-.006885 6.448966 2.595105 6.940834 5.986439l248.677714-.486439.003913 2-248.677715.486452c-.478597 3.393233-3.390898 6.006636-6.91736 6.013548-3.865986.007549-7.006117-3.120321-7.013693-6.986307-.007549-3.865986 3.120321-7.006117 6.986307-7.013693z" fill-rule="nonzero"/><path d="m564.986307 647c3.526462-.006885 6.448966 2.595105 6.940834 5.986439l248.677714-.486439.003913 2-248.677715.486452c-.478597 3.393233-3.390898 6.006636-6.91736 6.013548-3.865986.007549-7.006117-3.120321-7.013693-6.986307-.007549-3.865986 3.120321-7.006117 6.986307-7.013693z" fill-rule="nonzero"/></g></g></svg>